<svg width="1200" height="760" viewBox="0 0 1200 760" fill="none" xmlns="http://www.w3.org/2000/svg">
  <rect width="1200" height="760" rx="32" fill="#F5EFE5"/>
  <rect x="30" y="30" width="1140" height="700" rx="28" fill="#FFF9F1" stroke="#D7C7B6"/>
  <rect x="58" y="58" width="1084" height="170" rx="26" fill="#F7EFE4"/>
  <rect x="84" y="88" width="240" height="16" rx="8" fill="#BF5E31"/>
  <rect x="84" y="118" width="460" height="18" rx="9" fill="#1D1B17"/>
  <rect x="84" y="154" width="420" height="56" rx="18" fill="#FFFFFF" stroke="#D8CCBF"/>
  <rect x="524" y="154" width="250" height="56" rx="18" fill="#FFFFFF" stroke="#D8CCBF"/>
  <rect x="794" y="154" width="250" height="56" rx="18" fill="#FFFFFF" stroke="#D8CCBF"/>
  <rect x="58" y="252" width="1084" height="450" rx="26" fill="#FBF6EE" stroke="#D7C7B6"/>
  <rect x="88" y="286" width="210" height="14" rx="7" fill="#1F6D5C"/>
  <rect x="88" y="326" width="1020" height="78" rx="20" fill="#FFFFFF" stroke="#E0D4C7"/>
  <rect x="112" y="352" width="260" height="12" rx="6" fill="#1D1B17"/>
  <rect x="112" y="378" width="740" height="10" rx="5" fill="#8A8176"/>
  <rect x="88" y="434" width="320" height="228" rx="22" fill="#EEF7F3" stroke="#CFE0DA"/>
  <rect x="112" y="462" width="170" height="12" rx="6" fill="#1F6D5C"/>
  <rect x="112" y="490" width="240" height="10" rx="5" fill="#7A8F86"/>
  <rect x="112" y="530" width="180" height="12" rx="6" fill="#1D1B17"/>
  <rect x="434" y="434" width="320" height="228" rx="22" fill="#FFF4EE" stroke="#E7D0C4"/>
  <rect x="458" y="462" width="170" height="12" rx="6" fill="#BF5E31"/>
  <rect x="458" y="490" width="240" height="10" rx="5" fill="#8D7A6F"/>
  <rect x="458" y="530" width="200" height="12" rx="6" fill="#1D1B17"/>
  <rect x="780" y="434" width="328" height="228" rx="22" fill="#FFFFFF" stroke="#E0D4C7"/>
  <rect x="804" y="462" width="170" height="12" rx="6" fill="#1F6D5C"/>
  <rect x="804" y="490" width="248" height="10" rx="5" fill="#7A8F86"/>
  <rect x="804" y="530" width="214" height="12" rx="6" fill="#1D1B17"/>
</svg>
