<svg width="1200" height="760" viewBox="0 0 1200 760" fill="none" xmlns="http://www.w3.org/2000/svg">
  <rect width="1200" height="760" rx="32" fill="#F4EEE6"/>
  <rect x="28" y="28" width="1144" height="704" rx="28" fill="#FFF9F1" stroke="#D7C7B6"/>
  <rect x="56" y="56" width="1088" height="118" rx="24" fill="#F8F0E5"/>
  <rect x="80" y="84" width="280" height="18" rx="9" fill="#BF5E31"/>
  <rect x="80" y="116" width="510" height="20" rx="10" fill="#1D1B17"/>
  <rect x="80" y="148" width="610" height="12" rx="6" fill="#7D7468"/>
  <rect x="56" y="198" width="300" height="506" rx="24" fill="#FBF6EE" stroke="#D7C7B6"/>
  <rect x="384" y="198" width="760" height="506" rx="24" fill="#FBF6EE" stroke="#D7C7B6"/>
  <rect x="84" y="232" width="120" height="14" rx="7" fill="#1F6D5C"/>
  <rect x="84" y="268" width="244" height="66" rx="18" fill="#F3EBE0"/>
  <rect x="84" y="352" width="244" height="66" rx="18" fill="#F3EBE0"/>
  <rect x="84" y="436" width="244" height="66" rx="18" fill="#F3EBE0"/>
  <rect x="84" y="530" width="244" height="14" rx="7" fill="#675F53"/>
  <rect x="84" y="560" width="200" height="10" rx="5" fill="#B9AEA1"/>
  <rect x="412" y="232" width="180" height="14" rx="7" fill="#1F6D5C"/>
  <rect x="412" y="272" width="690" height="84" rx="20" fill="#FFFFFF" stroke="#E0D4C7"/>
  <rect x="436" y="296" width="220" height="12" rx="6" fill="#1D1B17"/>
  <rect x="436" y="322" width="610" height="10" rx="5" fill="#8A8176"/>
  <rect x="412" y="380" width="690" height="124" rx="20" fill="#F1FAF6" stroke="#CFE0DA"/>
  <rect x="436" y="406" width="180" height="12" rx="6" fill="#1F6D5C"/>
  <rect x="436" y="434" width="300" height="10" rx="5" fill="#73887F"/>
  <rect x="436" y="462" width="624" height="12" rx="6" fill="#1D1B17"/>
  <rect x="412" y="530" width="690" height="138" rx="20" fill="#FFF4EE" stroke="#E7D0C4"/>
  <rect x="436" y="556" width="210" height="12" rx="6" fill="#BF5E31"/>
  <rect x="436" y="584" width="490" height="10" rx="5" fill="#8B7B6D"/>
  <rect x="436" y="612" width="560" height="10" rx="5" fill="#8B7B6D"/>
</svg>
